<?xml version="1.0" encoding="utf-8"?>
<!-- Generator: Adobe Illustrator 21.0.2, SVG Export Plug-In . SVG Version: 6.00 Build 0)  -->
<svg version="1.1" id="Foreground" xmlns="http://www.w3.org/2000/svg" xmlns:xlink="http://www.w3.org/1999/xlink" x="0px" y="0px"
	 viewBox="0 0 628.8 417" style="enable-background:new 0 0 628.8 417;" xml:space="preserve">
<title>Artboard 2</title>
<path d="M283.1,113.5c5.2-8.4,8.7-8.7,12.3-6.3c2.5,1.7,3.7,2.9,6.1,1.6c-8-7.2-8.6-19.5-1.4-27.5c7.2-8,19.5-8.6,27.5-1.4
	s8.6,19.5,1.4,27.5c-0.4,0.5-0.9,1-1.4,1.4c2.3,1.3,3.5,0,6-1.6c3.6-2.4,7.1-2.1,12.3,6.3l-2.6,1.6c-2.5-4-4.2-5.5-5.3-6
	c-3.1-1.3-6,6.6-13,1.7c-6.4,4-14.4,4-20.8,0c-7.1,5-10-2.9-13.1-1.7c-1.1,0.4-2.8,1.9-5.3,6L283.1,113.5z M314.5,78.1
	c-9,0-16.3,7.3-16.3,16.3c0,9,7.3,16.3,16.3,16.3c9,0,16.3-7.3,16.3-16.3C330.9,85.4,323.5,78.1,314.5,78.1
	C314.5,78.1,314.5,78.1,314.5,78.1L314.5,78.1z M343.3,362.5v45h109.2v-45H343.3z M285.7,407.5v-45H176.5v45H285.7z M122,407.5v-45
	H16v45L122,407.5z M16,147.6h106v-16.1H16V147.6z M507,131.5v16.1h106v-16.1H507z M613,362.5H507v45l106,0V362.5z M173.4,147.6
	v-16.1h-48.2v16.1H173.4z M173.4,407.5v-45h-48.2v45H173.4z M455.6,362.5v45h48.3v-45H455.6z M455.6,131.5v16.1h48.3v-16.1H455.6z
	 M452.5,147.6v-16.1h-276v16.1H452.5z M122,294.9H16v64.4h106L122,294.9z M173.4,294.9h-48.2v64.4h48.2V294.9z M503.9,294.9h-48.3
	v64.4h48.3V294.9z M613,294.9H507v64.4h106V294.9z M507,291.8h106V150.7H507V291.8z M455.6,291.8h48.3V150.7h-48.3V291.8z
	 M176.5,291.8h276V150.7h-276L176.5,291.8z M125.1,291.8h48.2V150.7h-48.2L125.1,291.8z M16,291.8h106V150.7H16L16,291.8z
	 M398.2,334.2c-0.1-12.6,10.1-22.8,22.6-22.8s22.8,10.1,22.8,22.6c0,0.1,0,0.1,0,0.2v2.4h-45.5L398.2,334.2z M345.1,334.2
	c-0.1-12.6,10.1-22.8,22.6-22.8c12.6-0.1,22.8,10.1,22.8,22.6c0,0.1,0,0.1,0,0.2v2.4h-45.5V334.2z M291.9,334.2
	c-0.1-12.6,10.1-22.8,22.6-22.8c12.6-0.1,22.8,10.1,22.8,22.6c0,0.1,0,0.1,0,0.2v2.4h-45.5V334.2z M238.8,334.2
	c-0.1-12.6,10.1-22.8,22.6-22.8s22.8,10.1,22.8,22.6c0,0.1,0,0.1,0,0.2v2.4h-45.5L238.8,334.2z M185.7,334.2
	c-0.1-12.6,10.1-22.8,22.6-22.8s22.8,10.1,22.8,22.6c0,0.1,0,0.1,0,0.2v2.4h-45.5L185.7,334.2z M423.5,369h12.7v32.1h-12.7V369z
	 M404.3,369H417v32.1h-12.7V369z M378.6,369h12.7v32.1h-12.7V369z M359.5,369h12.7v32.1h-12.7V369z M256.8,369h12.7v32.1h-12.7V369z
	 M237.6,369h12.7v32.1h-12.7L237.6,369z M211.9,369h12.7v32.1h-12.7V369z M192.8,369h12.7v32.1h-12.7V369z M141.3,369h16v32.1h-16
	V369z M471.7,369h16v32.1h-16V369z M138,313.2c0-6.2,5-11.3,11.2-11.3c6.2,0,11.3,5,11.3,11.2c0,0,0,0.1,0,0.1v25.1
	c0,6.2-5,11.3-11.2,11.3c-6.2,0-11.3-5-11.3-11.2c0,0,0-0.1,0-0.1V313.2z M468.4,313.2c0-6.2,5-11.3,11.2-11.3s11.3,5,11.3,11.2
	c0,0,0,0.1,0,0.1v25.1c0,6.2-5,11.3-11.2,11.3s-11.3-5-11.3-11.2c0,0,0-0.1,0-0.1V313.2z M285.7,340.1h57.6v19.3h109.2v-64.4h-276
	v64.4h109.2L285.7,340.1z M292.1,157.2H337v128.1h-44.9V157.2z M344.9,157.2h44.9v128.1h-44.9V157.2z M397.8,157.2h44.9v128.1h-44.9
	V157.2z M186.3,157.2h44.9v128.1h-44.9V157.2z M239.2,157.2h44.9v128.1h-44.9V157.2z M125.2,121.2h64.4l107.2-53.5H125.2V121.2z
	 M303.8,67.7l-107.2,53.5h236.3L327.8,67.7l-11.9-6L303.8,67.7z M334.7,67.7l105.1,53.5h64.1V67.7L334.7,67.7z M292,346.5h45.1v61
	h3.1v-64.1h-51.3v64.1h3.1L292,346.5z M544.4,6.4c0,0,43.8,44.6,56.8,57.3h-85.3L458.5,6.4H544.4z M12.9,417V131.5H0l26.2-63.9
	l95.2,0l0-3.1h181.6l7.8-3.9H121.6L181.5,0h266.1l59.9,60.7H320.9l7.6,3.9h179v3.1l95,0l26.2,63.9h-12.7V417H12.9z M85.2,6.4h85.8
	l-57.3,57.3H28.5C41.5,51.1,85.2,6.4,85.2,6.4z"/>
</svg>
