<svg id="Foreground" xmlns="http://www.w3.org/2000/svg" viewBox="0 0 842 595"><defs><style>.cls-1{fill-rule:evenodd;}</style></defs><title>Artboard 2</title><path class="cls-1" d="M389.64769,203.86191c5.2379-8.4076,8.6912-8.7137,12.30831-6.2961,2.48819,1.663,3.70549,2.922,6.05579,1.6259a19.46232,19.46232,0,1,1,26.065.0189c2.3279,1.265,3.5453.0101,6.0214-1.6448,3.6171-2.4176,7.0704-2.1115,12.3083,6.2961l-2.64649,1.6488c-2.52111-4.0468-4.20591-5.5256-5.29341-5.9693-3.0701-1.2526-5.9915,6.6265-13.034,1.6723a19.47858,19.47858,0,0,1-20.7849-.0184c-7.0614,4.9922-9.9862-2.908-13.0601-1.6539-1.08759.4437-2.7723,1.9225-5.2934,5.9693Zm31.4071-35.46a16.3442,16.3442,0,1,0,16.34421,16.3442A16.3441,16.3441,0,0,0,421.05479,168.40191ZM449.859,452.8115v45.0047H559.01969V452.8115Zm-57.58521,45.0047V452.8115h-109.24v45.0047Zm-163.702,0V452.8115H122.5635v45.0046ZM122.5635,237.94411h106.0083v-16.1134H122.5635Zm490.97429-16.1134v16.1134H719.546v-16.1134ZM719.546,452.8115H613.53778v45.0047l106.00822-.0001ZM279.91579,237.94411v-16.1134h-48.226v16.1134Zm0,259.87209V452.8115h-48.226v45.0047Zm282.222-45.0047v45.0047h48.2819V452.8115Zm0-230.98079v16.1134h48.2819v-16.1134Zm-3.1181,16.1134v-16.1134H283.03379v16.1134ZM228.57179,385.27481H122.5635v64.4186h106.0083Zm51.344,0h-48.226v64.4186h48.226Zm330.50389,0h-48.2819v64.4186h48.2819Zm109.12632,0H613.53778v64.4186H719.546Zm-106.00822-3.1181H719.546V241.06231H613.53778Zm-51.4,0h48.2819V241.06231h-48.2819Zm-279.104,0H559.01969V241.06231H283.03379Zm-51.344,0h48.226V241.06231h-48.226Zm-109.1263,0h106.0083V241.06231H122.5635Zm382.161,42.3284a22.743,22.743,0,1,1,45.48551,0v2.4443H504.72439Zm-53.1173,0a22.743,22.743,0,1,1,45.4856,0v2.4443h-45.4856Zm-53.11719,0a22.743,22.743,0,1,1,45.48559,0v2.4443H398.49Zm-53.11721,0a22.743,22.743,0,1,1,45.4855,0v2.4443h-45.4856Zm-53.1172,0a22.743,22.743,0,1,1,45.4855,0v2.4443h-45.4856Zm237.75189,34.8041h12.7424v32.1009h-12.7424Zm-19.1567,0h12.7424v32.1009h-12.7424Zm-25.6866,0h12.7424v32.1009h-12.7424Zm-19.1567,0h12.7424v32.1009h-12.7424Zm-102.7038,0h12.7424v32.1009h-12.7424Zm-19.15669,0h12.74239v32.1009H344.147Zm-25.68661,0h12.7424v32.1009h-12.7424Zm-19.1567,0h12.7424v32.1009h-12.7424Zm-51.5009.0386h16v32.0837h-16Zm330.47589,0h16v32.0837h-16ZM244.51739,403.4961a11.28557,11.28557,0,1,1,22.5709,0v25.0653a11.28557,11.28557,0,1,1-22.5709,0Zm330.47589,0a11.28557,11.28557,0,1,1,22.5709,0v25.0653a11.28557,11.28557,0,1,1-22.5709,0Zm-182.7195,26.9083H449.859v19.289H559.01969v-64.4186H283.03379v64.4186h109.24Zm6.3388-182.8714h44.8843V375.60491h-44.8843Zm52.8739,0h44.8843V375.60491h-44.8843Zm52.8738,0h44.8843V375.60491h-44.8843Zm-211.49539,0h44.8843V375.60491h-44.8843Zm52.8739,0h44.8843V375.60491h-44.8843ZM231.74079,211.5h64.3929l107.2285-53.50779H231.74079Zm178.6047-53.50779L303.11709,211.5H539.43089l-105.0878-53.50779-11.9307-6Zm30.8697,0L546.303,211.5h64.06578V157.99221ZM398.51969,436.8007H443.613v61.0155h3.10719V433.6935h-51.3077v64.1227h3.1073Zm252.39-340.04829s43.76132,44.6329,56.7747,57.3291h-85.2992L565.065,96.75241ZM119.4454,507.3515V221.83071h-12.901l26.1958-63.8503,95.2307.0001.00011-3.1064H409.61069l7.7796-3.882H228.12559L287.998,90.33061H554.11159l59.8723,60.6615H427.467l7.62439,3.882h179.0273v3.1064l95.0156-.0001,26.1959,63.8503h-12.6661V507.3515ZM191.7732,96.75241h85.8447l-57.3202,57.3291H134.9985C148.0119,141.38531,191.7732,96.75241,191.7732,96.75241Z"/></svg>